# xmcd
#
# Track frame offsets:
#	183
#	17508
#	32983
#	43783
#	55668
#	70618
#	85358
#	103558
#	117343
#	132333
#	143158
#	156658
#	175808
#	188733
#
# Disc length: 2709 seconds
#
# Revision: 0
# Processed by: cddbd v1.4PL0 Copyright (c) Steve Scherf et al.
# Submitted via: dBpowerAMP V4.0
#
DISCID=bf0a930e
DTITLE=Don Williams - Portrait
DYEAR=1900
DGENRE=
TTITLE0=It Only Rains On Me
TTITLE1=We've Never Tried It With Each Other
TTITLE2=We're All The Way
TTITLE3=Circle Driveway
TTITLE4=You Get To Me
TTITLE5=Tulsa Time
TTITLE6=I Believe In You
TTITLE7=Steal My Heart Away
TTITLE8=Love's Endless War
TTITLE9=Woman, You Should Be In The Movies
TTITLE10=Love Me Over Again
TTITLE11=Good Ole' Boys Like Me
TTITLE12=Your'e My Best Friend
TTITLE13=Amanda
EXTD=
EXTT0=
EXTT1=
EXTT2=
EXTT3=
EXTT4=
EXTT5=
EXTT6=
EXTT7=
EXTT8=
EXTT9=
EXTT10=
EXTT11=
EXTT12=
EXTT13=
PLAYORDER=
